<?xml version="1.0" encoding="utf-8"?>
<!-- Generator: Adobe Illustrator 19.2.1, SVG Export Plug-In . SVG Version: 6.00 Build 0)  -->
<svg version="1.1" id="Слой_1" xmlns="http://www.w3.org/2000/svg" xmlns:xlink="http://www.w3.org/1999/xlink" x="0px" y="0px"
	 viewBox="0 0 157 30" style="enable-background:new 0 0 157 30;" xml:space="preserve">
<style type="text/css">
	.st0{fill:#FFFFFF;}
</style>
<g>
	<g>
		<path class="st0" d="M37.5,7.1c-1.7,0-3.3,0.2-4.5,0.4v17.3c0.9,0.1,2.2,0.2,3.9,0.2c3.1,0,5.5-0.7,7.1-2.1
			c1.3-1.2,2.7-3.4,2.7-7.2c0-3.2-1-5.4-2.7-6.7C42.4,7.7,40.4,7.1,37.5,7.1z M37.6,22.3c-0.5,0-1,0-1.3-0.1V9.9
			c0.4-0.1,0.9-0.2,1.6-0.2c3.2,0,5.1,2,5.1,5.9C43,20.4,40.8,22.3,37.6,22.3z"/>
		<path class="st0" d="M54.1,11.9c-3.7,0-5.8,3.2-5.8,6.9c0,4,2.2,6.4,6.2,6.4c1.6,0,3.1-0.3,4.1-0.7L58.1,22
			c-0.9,0.3-1.9,0.5-3.1,0.5c-1.8,0-3.4-0.9-3.5-3.1h7.7c0.1-0.4,0.1-0.9,0.1-1.3C59.2,14,57.2,11.9,54.1,11.9z M51.5,17.2
			c0.1-1.3,0.8-2.9,2.4-2.9c1.7,0,2.2,1.6,2.2,2.9H51.5z"/>
		<path class="st0" d="M68.7,12.1l-1.6,6.2c-0.3,1.1-0.5,2.1-0.7,3.3h-0.1c-0.2-1.1-0.4-2.1-0.7-3.3L64,12.1h-3.6l4.3,12.8h3.3
			l4.3-12.8C72.2,12.1,68.7,12.1,68.7,12.1z"/>
		<path class="st0" d="M1.8,23.7c-0.6,0.8-1.1,1.6-1.5,2.2C0.2,26,0,26.5,0,26.8v0.5c0,0.8,0.6,1.4,1.4,1.4h22.3
			c0.8,0,1.4-0.6,1.4-1.4V10.2C13,12.3,5.6,18.9,1.8,23.7z"/>
	</g>
	<g>
		<polygon class="st0" points="77.6,17.2 83.3,17.2 83.3,14.4 77.6,14.4 77.6,10.1 83.7,10.1 83.7,7.3 74.1,7.3 74.1,24.9 84,24.9 
			84,22 77.6,22 		"/>
		<path class="st0" d="M96.8,12.1h-3.6l-1.1,2.3c-0.3,0.6-0.6,1.3-1,2h-0.1c-0.3-0.6-0.6-1.3-1-2l-1.2-2.3h-3.7l3.8,6.3l-3.9,6.5
			h3.6l1.2-2.5c0.3-0.6,0.6-1.3,1-2h0.1c0.3,0.7,0.6,1.3,1,2l1.3,2.5H97l-3.9-6.6L96.8,12.1z"/>
		<path class="st0" d="M105.4,11.9c-1.7,0-2.9,0.7-3.8,2h-0.1l-0.2-1.8h-2.9c0.1,1.2,0.1,2.5,0.1,4.2V30h3.4v-6.4h0.1
			c0.5,0.9,1.6,1.5,3,1.5c2.6,0,5.2-2.1,5.2-6.7C110.3,14.4,108.2,11.9,105.4,11.9z M104.2,22.5c-1.1,0-2.2-0.9-2.2-2.7v-2.4
			c0-1.6,1-2.8,2.4-2.8c1.7,0,2.6,1.7,2.6,3.9C106.8,20.8,105.9,22.5,104.2,22.5z"/>
		<path class="st0" d="M115.7,14.3h-0.1l-0.2-2.2h-2.9c0.1,1.1,0.1,2.4,0.1,4v8.8h3.4v-6.6c0-2.2,1.2-3.2,2.7-3.2
			c0.3,0,0.6,0,0.9,0.1v-3.2c-0.2-0.1-0.4-0.1-0.7-0.1C117.7,11.9,116.3,12.7,115.7,14.3z"/>
		<path class="st0" d="M126.7,11.9c-3.7,0-5.8,3.2-5.8,6.9c0,4,2.2,6.4,6.2,6.4c1.6,0,3.1-0.3,4.1-0.7l-0.5-2.4
			c-0.9,0.3-1.9,0.5-3.1,0.5c-1.8,0-3.4-0.9-3.5-3.1h7.7c0.1-0.4,0.1-0.9,0.1-1.3C131.8,14,129.8,11.9,126.7,11.9z M124.1,17.2
			c0.1-1.3,0.8-2.9,2.4-2.9c1.7,0,2.2,1.6,2.2,2.9H124.1z"/>
		<path class="st0" d="M138.8,17.2c-1.4-0.6-1.9-1-1.9-1.7c0-0.7,0.5-1.2,1.6-1.2c1,0,1.9,0.4,2.4,0.6l0.6-2.4
			c-0.7-0.4-1.9-0.7-3.2-0.7c-2.8,0-4.7,1.8-4.7,4c0,1.4,0.9,2.7,3.3,3.7c1.4,0.6,1.8,1,1.8,1.8c0,0.8-0.6,1.3-1.8,1.3
			c-1.1,0-2.3-0.5-3-0.9l-0.6,2.5c0.9,0.5,2.2,0.9,3.6,0.9c3.2,0,5-1.6,5-4C142,19.3,141,18.1,138.8,17.2z"/>
		<path class="st0" d="M149,17.2c-1.4-0.6-1.9-1-1.9-1.7c0-0.7,0.5-1.2,1.6-1.2c1,0,1.9,0.4,2.4,0.6l0.6-2.4
			c-0.7-0.4-1.9-0.7-3.2-0.7c-2.8,0-4.7,1.8-4.7,4c0,1.4,0.9,2.7,3.3,3.7c1.4,0.6,1.8,1,1.8,1.8c0,0.8-0.6,1.3-1.8,1.3
			c-1.1,0-2.3-0.5-3-0.9l-0.6,2.5c0.9,0.5,2.2,0.9,3.6,0.9c3.2,0,5-1.6,5-4C152.2,19.3,151.2,18.1,149,17.2z"/>
		<path class="st0" d="M23.7,3.6H1.5c-0.8,0-1.4,0.6-1.4,1.4v13.3c4.4-4.6,12.2-9.7,24.1-11.1c0.3-0.1,1-0.2,1-1.1V5.1
			C25.2,4.3,24.5,3.6,23.7,3.6z"/>
		<path class="st0" d="M155.4,11.4L155.4,11.4c0.4-0.1,0.6-0.3,0.6-0.6c0-0.2-0.1-0.4-0.2-0.5s-0.4-0.2-0.7-0.2h-0.7v2.4h0.5v-1h0.2
			c0.2,0,0.3,0.1,0.3,0.3l0.2,0.6h0.5l-0.3-0.6C155.7,11.5,155.6,11.4,155.4,11.4z M155.1,11.1h-0.3v-0.7h0.3c0.3,0,0.4,0.1,0.4,0.3
			c0,0.1-0.1,0.2-0.1,0.3C155.3,11.1,155.2,11.1,155.1,11.1z"/>
		<path class="st0" d="M156.5,9.9c-0.4-0.4-0.8-0.5-1.3-0.5c-0.5,0-1,0.2-1.3,0.5c-0.4,0.4-0.5,0.8-0.5,1.3s0.2,1,0.5,1.3
			c0.4,0.3,0.8,0.5,1.3,0.5c0.5,0,1-0.2,1.3-0.5c0.4-0.4,0.5-0.8,0.5-1.3C157,10.7,156.8,10.3,156.5,9.9z M156.2,12.4
			c-0.3,0.3-0.7,0.5-1.1,0.5s-0.8-0.2-1.1-0.4c-0.3-0.3-0.5-0.7-0.5-1.1s0.2-0.8,0.5-1.1c0.3-0.3,0.7-0.5,1.1-0.5
			c0.4,0,0.9,0.2,1.1,0.5c0.3,0.3,0.5,0.7,0.5,1.1C156.7,11.7,156.6,12.1,156.2,12.4z"/>
	</g>
</g>
</svg>
